<svg width="58" height="57" viewBox="0 0 58 57" fill="none" xmlns="http://www.w3.org/2000/svg">
<g clip-path="url(#clip0_136_38)">
<path fill-rule="evenodd" clip-rule="evenodd" d="M16.4783 40.6588C19.7601 43.9407 24.2113 45.7844 28.8526 45.7844C33.4939 45.7844 37.9451 43.9407 41.227 40.6588C44.5089 37.3769 46.3526 32.9257 46.3526 28.2844C46.3526 23.6431 44.5089 19.1919 41.227 15.9101C37.9451 12.6282 33.4939 10.7844 28.8526 10.7844C24.2113 10.7844 19.7601 12.6282 16.4783 15.9101C13.1964 19.1919 11.3526 23.6431 11.3526 28.2844C11.3526 32.9257 13.1964 37.3769 16.4783 40.6588V40.6588ZM42.9948 14.1423C46.7455 17.893 48.8526 22.9801 48.8526 28.2844C48.8526 33.5888 46.7455 38.6758 42.9948 42.4266C39.244 46.1773 34.157 48.2844 28.8526 48.2844C23.5483 48.2844 18.4612 46.1773 14.7105 42.4266C10.9598 38.6758 8.85263 33.5888 8.85263 28.2844C8.85263 22.9801 10.9598 17.893 14.7105 14.1423C18.4612 10.3916 23.5483 8.28442 28.8526 8.28442C34.157 8.28442 39.244 10.3916 42.9948 14.1423V14.1423ZM20.0138 27.0328C19.6819 27.0328 19.3635 27.1647 19.1288 27.3994C18.8941 27.6341 18.7622 27.9525 18.7622 28.2844C18.7622 28.6164 18.8941 28.9347 19.1288 29.1694C19.3635 29.4041 19.6819 29.536 20.0138 29.536L34.4971 29.5342L29.6039 34.4274C29.3695 34.6618 29.2378 34.9798 29.2378 35.3113C29.2378 35.6428 29.3695 35.9608 29.6039 36.1952C29.8384 36.4296 30.1563 36.5613 30.4878 36.5613C30.8193 36.5613 31.1373 36.4296 31.3717 36.1952L38.3986 29.1683C38.633 28.9339 38.7647 28.6159 38.7647 28.2844C38.7647 27.9529 38.633 27.635 38.3986 27.4005L31.3717 20.3737C31.1373 20.1392 30.8193 20.0075 30.4878 20.0075C30.1563 20.0075 29.8384 20.1392 29.6039 20.3737C29.3695 20.6081 29.2378 20.926 29.2378 21.2575C29.2378 21.5891 29.3695 21.907 29.6039 22.1414L34.4971 27.0346L20.0138 27.0328Z" fill="#DB1E06"/>
</g>
<defs>
<clipPath id="clip0_136_38">
<rect width="40" height="40" fill="white" transform="translate(0.568359 28.2844) rotate(-45)"/>
</clipPath>
</defs>
</svg>
