<svg width="57" height="57" viewBox="0 0 57 57" fill="none" xmlns="http://www.w3.org/2000/svg">
<g clip-path="url(#clip0_136_40)">
<path fill-rule="evenodd" clip-rule="evenodd" d="M40.6585 15.9101C37.3766 12.6282 32.9254 10.7844 28.2841 10.7844C23.6428 10.7844 19.1916 12.6282 15.9097 15.9101C12.6278 19.1919 10.7841 23.6431 10.7841 28.2844C10.7841 32.9257 12.6278 37.3769 15.9097 40.6588C19.1916 43.9407 23.6428 45.7844 28.2841 45.7844C32.9254 45.7844 37.3766 43.9407 40.6585 40.6588C43.9403 37.3769 45.7841 32.9257 45.7841 28.2844C45.7841 23.6431 43.9403 19.1919 40.6585 15.9101V15.9101ZM14.142 42.4266C10.3912 38.6758 8.28409 33.5888 8.28409 28.2844C8.28409 22.9801 10.3912 17.893 14.142 14.1423C17.8927 10.3916 22.9798 8.28442 28.2841 8.28442C33.5884 8.28442 38.6755 10.3916 42.4262 14.1423C46.177 17.893 48.2841 22.9801 48.2841 28.2844C48.2841 33.5888 46.177 38.6758 42.4262 42.4266C38.6755 46.1773 33.5884 48.2844 28.2841 48.2844C22.9798 48.2844 17.8927 46.1773 14.142 42.4266V42.4266ZM37.1229 29.536C37.4549 29.536 37.7732 29.4041 38.0079 29.1694C38.2426 28.9347 38.3745 28.6164 38.3745 28.2844C38.3745 27.9525 38.2426 27.6341 38.0079 27.3994C37.7732 27.1647 37.4549 27.0328 37.1229 27.0328L22.6396 27.0346L27.5328 22.1414C27.7672 21.907 27.8989 21.5891 27.8989 21.2575C27.8989 20.926 27.7672 20.6081 27.5328 20.3737C27.2984 20.1392 26.9804 20.0075 26.6489 20.0075C26.3174 20.0075 25.9994 20.1392 25.765 20.3737L18.7381 27.4005C18.5037 27.635 18.372 27.9529 18.372 28.2844C18.372 28.6159 18.5037 28.9339 18.7381 29.1683L25.765 36.1952C25.9994 36.4296 26.3174 36.5613 26.6489 36.5613C26.9804 36.5613 27.2984 36.4296 27.5328 36.1952C27.7672 35.9608 27.8989 35.6428 27.8989 35.3113C27.8989 34.9798 27.7672 34.6618 27.5328 34.4274L22.6396 29.5342L37.1229 29.536Z" fill="#4E3532"/>
</g>
<defs>
<clipPath id="clip0_136_40">
<rect width="40" height="40" fill="white" transform="translate(56.5684 28.2844) rotate(135)"/>
</clipPath>
</defs>
</svg>
