<svg width="26" height="26" viewBox="0 0 26 26" fill="none" xmlns="http://www.w3.org/2000/svg">
<path d="M20.769 1.51893C21.0102 1.26403 21.2999 1.06005 21.6212 0.91905C21.9425 0.778048 22.2888 0.702887 22.6396 0.698008C22.9904 0.693129 23.3387 0.758632 23.6638 0.890644C23.9888 1.02266 24.2842 1.2185 24.5323 1.4666C24.7804 1.7147 24.9762 2.01001 25.1082 2.3351C25.2402 2.66018 25.3057 3.00843 25.3008 3.35926C25.296 3.71009 25.2208 4.05638 25.0798 4.37766C24.9388 4.69895 24.7348 4.9887 24.4799 5.22981L16.7887 12.9211C16.7785 12.9312 16.7704 12.9433 16.7649 12.9566C16.7594 12.9699 16.7565 12.9841 16.7565 12.9985C16.7565 13.0129 16.7594 13.0271 16.7649 13.0404C16.7704 13.0537 16.7785 13.0658 16.7887 13.0759L24.4799 20.7672C24.727 21.0102 24.9235 21.2997 25.058 21.619C25.1926 21.9383 25.2627 22.2811 25.2641 22.6276C25.2656 22.9741 25.1984 23.3175 25.0665 23.6379C24.9346 23.9584 24.7405 24.2495 24.4955 24.4945C24.2505 24.7396 23.9595 24.9337 23.6391 25.0657C23.3187 25.1977 22.9753 25.265 22.6288 25.2636C22.2823 25.2622 21.9395 25.1923 21.6201 25.0577C21.3008 24.9232 21.0112 24.7268 20.7682 24.4798L13.0769 16.7886C13.0668 16.7784 13.0547 16.7703 13.0414 16.7648C13.0281 16.7593 13.0139 16.7564 12.9995 16.7564C12.9851 16.7564 12.9709 16.7593 12.9576 16.7648C12.9443 16.7703 12.9322 16.7784 12.9221 16.7886L5.2308 24.4798C4.98781 24.7269 4.69831 24.9233 4.379 25.0579C4.05969 25.1925 3.71689 25.2626 3.37037 25.264C3.02386 25.2655 2.68048 25.1983 2.36006 25.0664C2.03963 24.9345 1.74849 24.7404 1.50344 24.4954C1.25838 24.2504 1.06426 23.9593 0.932269 23.6389C0.800276 23.3185 0.733026 22.9752 0.734396 22.6287C0.735766 22.2822 0.805729 21.9393 0.940251 21.62C1.07477 21.3007 1.27119 21.0111 1.51818 20.7681L9.20942 13.0768C9.21961 13.0666 9.22769 13.0546 9.23321 13.0413C9.23872 13.028 9.24156 13.0138 9.24156 12.9994C9.24156 12.985 9.23872 12.9707 9.23321 12.9574C9.22769 12.9442 9.21961 12.9321 9.20942 12.9219L1.51818 5.23068C1.03246 4.7371 0.761449 4.07159 0.764187 3.3791C0.766924 2.68662 1.04319 2.02327 1.53279 1.53355C2.0224 1.04382 2.68569 0.767406 3.37817 0.764505C4.07065 0.761604 4.73623 1.03245 5.22992 1.51806L12.9212 9.20931C12.9313 9.21949 12.9434 9.22757 12.9567 9.23309C12.97 9.2386 12.9842 9.24144 12.9986 9.24144C13.013 9.24144 13.0272 9.2386 13.0405 9.23309C13.0538 9.22757 13.0659 9.21949 13.076 9.20931L20.7673 1.51806L20.769 1.51893Z" fill="#FAB62F"/>
</svg>
